<svg xmlns="http://www.w3.org/2000/svg" viewBox="0 0 1020 336" width="1020" height="336" role="img" aria-label="Terminal: Mayukh Das, System Architect Intern at Eccoi, Master of Computing at ANU, ex-Accenture."><style>.t{font-family:ui-monospace,'JetBrains Mono','SF Mono',SFMono-Regular,Menlo,Consolas,monospace;font-size:15.0px;}
@keyframes bl{0%,49%{fill:#00ff41}50%,100%{fill:transparent}}@keyframes w0{0%,5.9621%{width:0px}9.5393%{width:223.1px}9.589300000000001%,99.9%{width:1020px}100%{width:0px}}@keyframes o0{0%,5.952100000000001%{opacity:0}5.9621%,99.9%{opacity:1}100%{opacity:0}}@keyframes k0{0%,5.952100000000001%{opacity:0}5.9621%,12.7813%{opacity:1}12.7913%,100%{opacity:0}}.m0{animation:w0 9.225s steps(23) infinite}.c0{animation:bl 1.06s steps(1) infinite,k0 9.225s steps(1) infinite}.l0{animation:o0 9.225s steps(1) infinite}@keyframes w1{0%,12.7913%{width:0px}16.477%{width:436.49999999999994px}16.527%,99.9%{width:1020px}100%{width:0px}}@keyframes o1{0%,12.7813%{opacity:0}12.7913%,99.9%{opacity:1}100%{opacity:0}}@keyframes k1{0%,12.7813%{opacity:0}12.7913%,18.2014%{opacity:1}18.2114%,100%{opacity:0}}.m1{animation:w1 9.225s steps(45) infinite}.c1{animation:bl 1.06s steps(1) infinite,k1 9.225s steps(1) infinite}.l1{animation:o1 9.225s steps(1) infinite}@keyframes w2{0%,18.2114%{width:0px}21.897%{width:484.99999999999994px}21.947%,99.9%{width:1020px}100%{width:0px}}@keyframes o2{0%,18.2014%{opacity:0}18.2114%,99.9%{opacity:1}100%{opacity:0}}@keyframes k2{0%,18.2014%{opacity:0}18.2114%,25.572699999999998%{opacity:1}25.5827%,100%{opacity:0}}.m2{animation:w2 9.225s steps(50) infinite}.c2{animation:bl 1.06s steps(1) infinite,k2 9.225s steps(1) infinite}.l2{animation:o2 9.225s steps(1) infinite}@keyframes w4{0%,25.5827%{width:0px}33.3333%{width:291.0px}33.3833%,99.9%{width:1020px}100%{width:0px}}@keyframes o4{0%,25.572699999999998%{opacity:0}25.5827%,99.9%{opacity:1}100%{opacity:0}}@keyframes k4{0%,25.572699999999998%{opacity:0}25.5827%,36.5754%{opacity:1}36.5854%,100%{opacity:0}}.m4{animation:w4 9.225s steps(30) infinite}.c4{animation:bl 1.06s steps(1) infinite,k4 9.225s steps(1) infinite}.l4{animation:o4 9.225s steps(1) infinite}@keyframes w5{0%,36.5854%{width:0px}40.271%{width:601.4px}40.321%,99.9%{width:1020px}100%{width:0px}}@keyframes o5{0%,36.5754%{opacity:0}36.5854%,99.9%{opacity:1}100%{opacity:0}}@keyframes k5{0%,36.5754%{opacity:0}36.5854%,43.946600000000004%{opacity:1}43.9566%,100%{opacity:0}}.m5{animation:w5 9.225s steps(62) infinite}.c5{animation:bl 1.06s steps(1) infinite,k5 9.225s steps(1) infinite}.l5{animation:o5 9.225s steps(1) infinite}@keyframes w7{0%,43.9566%{width:0px}52.3035%{width:300.7px}52.3535%,99.9%{width:1020px}100%{width:0px}}@keyframes o7{0%,43.946600000000004%{opacity:0}43.9566%,99.9%{opacity:1}100%{opacity:0}}@keyframes k7{0%,43.946600000000004%{opacity:0}43.9566%,55.5456%{opacity:1}55.5556%,100%{opacity:0}}.m7{animation:w7 9.225s steps(31) infinite}.c7{animation:bl 1.06s steps(1) infinite,k7 9.225s steps(1) infinite}.l7{animation:o7 9.225s steps(1) infinite}@keyframes w8{0%,55.5556%{width:0px}59.2412%{width:494.7px}59.291199999999996%,99.9%{width:1020px}100%{width:0px}}@keyframes o8{0%,55.5456%{opacity:0}55.5556%,99.9%{opacity:1}100%{opacity:0}}@keyframes k8{0%,55.5456%{opacity:0}55.5556%,99.89%{opacity:1}99.9%,100%{opacity:0}}.m8{animation:w8 9.225s steps(51) infinite}.c8{animation:bl 1.06s steps(1) infinite,k8 9.225s steps(1) infinite}.l8{animation:o8 9.225s steps(1) infinite}</style><rect x="1" y="1" width="1018" height="334" rx="10" fill="#010203" stroke="#10241a"/><path d="M1 11a10 10 0 0 1 10-10h998a10 10 0 0 1 10 10v23.0H1z" fill="#0a0f0c"/><line x1="1" y1="34.0" x2="1019" y2="34.0" stroke="#10241a"/><circle cx="22" cy="17.0" r="5" fill="#ff2b4e" opacity="0.85"/><circle cx="40" cy="17.0" r="5" fill="#7d8f85" opacity="0.85"/><circle cx="58" cy="17.0" r="5" fill="#00b32e" opacity="0.85"/><text class="t" x="510.0" y="21.5" text-anchor="middle" font-size="12" fill="#7d8f85">mayukh@github: ~/profile</text><style>@keyframes flow{from{stroke-dashoffset:100}to{stroke-dashoffset:0}}.fl{animation:flow 0.85s linear infinite}@keyframes s0{0%,0%{opacity:0}0.0%,33.033%{opacity:1}33.333%,100%{opacity:0}}.s0{animation:s0 2.55s linear infinite}@keyframes s1{0%,33.033%{opacity:0}33.333%,66.367%{opacity:1}66.667%,100%{opacity:0}}.s1{animation:s1 2.55s linear infinite}@keyframes u0{0%,0%{r:3;fill:#00b32e}0.0%,33.033%{r:4.6;fill:#00e5ff}33.333%,100%{r:3;fill:#00b32e}}.u0{animation:u0 2.55s steps(1) infinite}@keyframes u1{0%,28.326999999999998%{r:3;fill:#00b32e}28.627%,66.367%{r:4.6;fill:#00e5ff}66.667%,100%{r:3;fill:#00b32e}}.u1{animation:u1 2.55s steps(1) infinite}@keyframes u2{0%,61.661%{r:3;fill:#00b32e}61.961%,99.7%{r:4.6;fill:#00e5ff}100.0%,100%{r:3;fill:#00b32e}}.u2{animation:u2 2.55s steps(1) infinite}</style><g opacity="0.92"><line x1="676.0" y1="142.0" x2="812.0" y2="87.0" stroke="#1d4a2f" stroke-width="0.7" opacity="0.28"/><line x1="676.0" y1="142.0" x2="812.0" y2="105.0" stroke="#1d4a2f" stroke-width="0.7" opacity="0.28"/><line x1="676.0" y1="142.0" x2="812.0" y2="123.0" stroke="#1d4a2f" stroke-width="0.7" opacity="0.28"/><line x1="676.0" y1="142.0" x2="812.0" y2="141.0" stroke="#1d4a2f" stroke-width="0.7" opacity="0.28"/><line x1="676.0" y1="142.0" x2="812.0" y2="159.0" stroke="#1d4a2f" stroke-width="0.7" opacity="0.28"/><line x1="676.0" y1="142.0" x2="812.0" y2="177.0" stroke="#1d4a2f" stroke-width="0.7" opacity="0.28"/><line x1="676.0" y1="142.0" x2="812.0" y2="195.0" stroke="#1d4a2f" stroke-width="0.7" opacity="0.28"/><line x1="676.0" y1="142.0" x2="812.0" y2="213.0" stroke="#1d4a2f" stroke-width="0.7" opacity="0.28"/><line x1="676.0" y1="142.0" x2="812.0" y2="231.0" stroke="#1d4a2f" stroke-width="0.7" opacity="0.28"/><line x1="676.0" y1="142.0" x2="812.0" y2="249.0" stroke="#1d4a2f" stroke-width="0.7" opacity="0.28"/><line x1="676.0" y1="142.0" x2="812.0" y2="267.0" stroke="#1d4a2f" stroke-width="0.7" opacity="0.28"/><line x1="676.0" y1="142.0" x2="812.0" y2="285.0" stroke="#1d4a2f" stroke-width="0.7" opacity="0.28"/><line x1="676.0" y1="186.0" x2="812.0" y2="87.0" stroke="#1d4a2f" stroke-width="0.7" opacity="0.28"/><line x1="676.0" y1="186.0" x2="812.0" y2="105.0" stroke="#1d4a2f" stroke-width="0.7" opacity="0.28"/><line x1="676.0" y1="186.0" x2="812.0" y2="123.0" stroke="#1d4a2f" stroke-width="0.7" opacity="0.28"/><line x1="676.0" y1="186.0" x2="812.0" y2="141.0" stroke="#1d4a2f" stroke-width="0.7" opacity="0.28"/><line x1="676.0" y1="186.0" x2="812.0" y2="159.0" stroke="#1d4a2f" stroke-width="0.7" opacity="0.28"/><line x1="676.0" y1="186.0" x2="812.0" y2="177.0" stroke="#1d4a2f" stroke-width="0.7" opacity="0.28"/><line x1="676.0" y1="186.0" x2="812.0" y2="195.0" stroke="#1d4a2f" stroke-width="0.7" opacity="0.28"/><line x1="676.0" y1="186.0" x2="812.0" y2="213.0" stroke="#1d4a2f" stroke-width="0.7" opacity="0.28"/><line x1="676.0" y1="186.0" x2="812.0" y2="231.0" stroke="#1d4a2f" stroke-width="0.7" opacity="0.28"/><line x1="676.0" y1="186.0" x2="812.0" y2="249.0" stroke="#1d4a2f" stroke-width="0.7" opacity="0.28"/><line x1="676.0" y1="186.0" x2="812.0" y2="267.0" stroke="#1d4a2f" stroke-width="0.7" opacity="0.28"/><line x1="676.0" y1="186.0" x2="812.0" y2="285.0" stroke="#1d4a2f" stroke-width="0.7" opacity="0.28"/><line x1="676.0" y1="230.0" x2="812.0" y2="87.0" stroke="#1d4a2f" stroke-width="0.7" opacity="0.28"/><line x1="676.0" y1="230.0" x2="812.0" y2="105.0" stroke="#1d4a2f" stroke-width="0.7" opacity="0.28"/><line x1="676.0" y1="230.0" x2="812.0" y2="123.0" stroke="#1d4a2f" stroke-width="0.7" opacity="0.28"/><line x1="676.0" y1="230.0" x2="812.0" y2="141.0" stroke="#1d4a2f" stroke-width="0.7" opacity="0.28"/><line x1="676.0" y1="230.0" x2="812.0" y2="159.0" stroke="#1d4a2f" stroke-width="0.7" opacity="0.28"/><line x1="676.0" y1="230.0" x2="812.0" y2="177.0" stroke="#1d4a2f" stroke-width="0.7" opacity="0.28"/><line x1="676.0" y1="230.0" x2="812.0" y2="195.0" stroke="#1d4a2f" stroke-width="0.7" opacity="0.28"/><line x1="676.0" y1="230.0" x2="812.0" y2="213.0" stroke="#1d4a2f" stroke-width="0.7" opacity="0.28"/><line x1="676.0" y1="230.0" x2="812.0" y2="231.0" stroke="#1d4a2f" stroke-width="0.7" opacity="0.28"/><line x1="676.0" y1="230.0" x2="812.0" y2="249.0" stroke="#1d4a2f" stroke-width="0.7" opacity="0.28"/><line x1="676.0" y1="230.0" x2="812.0" y2="267.0" stroke="#1d4a2f" stroke-width="0.7" opacity="0.28"/><line x1="676.0" y1="230.0" x2="812.0" y2="285.0" stroke="#1d4a2f" stroke-width="0.7" opacity="0.28"/><line x1="812.0" y1="87.0" x2="948.0" y2="142.0" stroke="#1d4a2f" stroke-width="0.7" opacity="0.28"/><line x1="812.0" y1="87.0" x2="948.0" y2="186.0" stroke="#1d4a2f" stroke-width="0.7" opacity="0.28"/><line x1="812.0" y1="87.0" x2="948.0" y2="230.0" stroke="#1d4a2f" stroke-width="0.7" opacity="0.28"/><line x1="812.0" y1="105.0" x2="948.0" y2="142.0" stroke="#1d4a2f" stroke-width="0.7" opacity="0.28"/><line x1="812.0" y1="105.0" x2="948.0" y2="186.0" stroke="#1d4a2f" stroke-width="0.7" opacity="0.28"/><line x1="812.0" y1="105.0" x2="948.0" y2="230.0" stroke="#1d4a2f" stroke-width="0.7" opacity="0.28"/><line x1="812.0" y1="123.0" x2="948.0" y2="142.0" stroke="#1d4a2f" stroke-width="0.7" opacity="0.28"/><line x1="812.0" y1="123.0" x2="948.0" y2="186.0" stroke="#1d4a2f" stroke-width="0.7" opacity="0.28"/><line x1="812.0" y1="123.0" x2="948.0" y2="230.0" stroke="#1d4a2f" stroke-width="0.7" opacity="0.28"/><line x1="812.0" y1="141.0" x2="948.0" y2="142.0" stroke="#1d4a2f" stroke-width="0.7" opacity="0.28"/><line x1="812.0" y1="141.0" x2="948.0" y2="186.0" stroke="#1d4a2f" stroke-width="0.7" opacity="0.28"/><line x1="812.0" y1="141.0" x2="948.0" y2="230.0" stroke="#1d4a2f" stroke-width="0.7" opacity="0.28"/><line x1="812.0" y1="159.0" x2="948.0" y2="142.0" stroke="#1d4a2f" stroke-width="0.7" opacity="0.28"/><line x1="812.0" y1="159.0" x2="948.0" y2="186.0" stroke="#1d4a2f" stroke-width="0.7" opacity="0.28"/><line x1="812.0" y1="159.0" x2="948.0" y2="230.0" stroke="#1d4a2f" stroke-width="0.7" opacity="0.28"/><line x1="812.0" y1="177.0" x2="948.0" y2="142.0" stroke="#1d4a2f" stroke-width="0.7" opacity="0.28"/><line x1="812.0" y1="177.0" x2="948.0" y2="186.0" stroke="#1d4a2f" stroke-width="0.7" opacity="0.28"/><line x1="812.0" y1="177.0" x2="948.0" y2="230.0" stroke="#1d4a2f" stroke-width="0.7" opacity="0.28"/><line x1="812.0" y1="195.0" x2="948.0" y2="142.0" stroke="#1d4a2f" stroke-width="0.7" opacity="0.28"/><line x1="812.0" y1="195.0" x2="948.0" y2="186.0" stroke="#1d4a2f" stroke-width="0.7" opacity="0.28"/><line x1="812.0" y1="195.0" x2="948.0" y2="230.0" stroke="#1d4a2f" stroke-width="0.7" opacity="0.28"/><line x1="812.0" y1="213.0" x2="948.0" y2="142.0" stroke="#1d4a2f" stroke-width="0.7" opacity="0.28"/><line x1="812.0" y1="213.0" x2="948.0" y2="186.0" stroke="#1d4a2f" stroke-width="0.7" opacity="0.28"/><line x1="812.0" y1="213.0" x2="948.0" y2="230.0" stroke="#1d4a2f" stroke-width="0.7" opacity="0.28"/><line x1="812.0" y1="231.0" x2="948.0" y2="142.0" stroke="#1d4a2f" stroke-width="0.7" opacity="0.28"/><line x1="812.0" y1="231.0" x2="948.0" y2="186.0" stroke="#1d4a2f" stroke-width="0.7" opacity="0.28"/><line x1="812.0" y1="231.0" x2="948.0" y2="230.0" stroke="#1d4a2f" stroke-width="0.7" opacity="0.28"/><line x1="812.0" y1="249.0" x2="948.0" y2="142.0" stroke="#1d4a2f" stroke-width="0.7" opacity="0.28"/><line x1="812.0" y1="249.0" x2="948.0" y2="186.0" stroke="#1d4a2f" stroke-width="0.7" opacity="0.28"/><line x1="812.0" y1="249.0" x2="948.0" y2="230.0" stroke="#1d4a2f" stroke-width="0.7" opacity="0.28"/><line x1="812.0" y1="267.0" x2="948.0" y2="142.0" stroke="#1d4a2f" stroke-width="0.7" opacity="0.28"/><line x1="812.0" y1="267.0" x2="948.0" y2="186.0" stroke="#1d4a2f" stroke-width="0.7" opacity="0.28"/><line x1="812.0" y1="267.0" x2="948.0" y2="230.0" stroke="#1d4a2f" stroke-width="0.7" opacity="0.28"/><line x1="812.0" y1="285.0" x2="948.0" y2="142.0" stroke="#1d4a2f" stroke-width="0.7" opacity="0.28"/><line x1="812.0" y1="285.0" x2="948.0" y2="186.0" stroke="#1d4a2f" stroke-width="0.7" opacity="0.28"/><line x1="812.0" y1="285.0" x2="948.0" y2="230.0" stroke="#1d4a2f" stroke-width="0.7" opacity="0.28"/><path d="M646 186.0C646 64.0 978 64.0 978 186.0" fill="none" stroke="#1d4a2f" stroke-width="1" opacity="0.5" stroke-dasharray="4 4"/><path class="fl" d="M646 186.0C646 64.0 978 64.0 978 186.0" pathLength="100" fill="none" stroke="#00ff41" stroke-width="1.8" stroke-linecap="round" stroke-dasharray="12 88" opacity="0.75" style="animation-duration:2.55s"/><g class="s0"><line x1="676.0" y1="142.0" x2="812.0" y2="87.0" stroke="#00e5ff" stroke-width="0.9" opacity="0.35"/><line class="fl" x1="676.0" y1="142.0" x2="812.0" y2="87.0" pathLength="100" stroke="#00e5ff" stroke-width="1.8" stroke-linecap="round" stroke-dasharray="16 84"/><line x1="676.0" y1="142.0" x2="812.0" y2="105.0" stroke="#00e5ff" stroke-width="0.9" opacity="0.35"/><line class="fl" x1="676.0" y1="142.0" x2="812.0" y2="105.0" pathLength="100" stroke="#00e5ff" stroke-width="1.8" stroke-linecap="round" stroke-dasharray="16 84"/><line x1="676.0" y1="142.0" x2="812.0" y2="123.0" stroke="#00e5ff" stroke-width="0.9" opacity="0.35"/><line class="fl" x1="676.0" y1="142.0" x2="812.0" y2="123.0" pathLength="100" stroke="#00e5ff" stroke-width="1.8" stroke-linecap="round" stroke-dasharray="16 84"/><line x1="676.0" y1="142.0" x2="812.0" y2="141.0" stroke="#00e5ff" stroke-width="0.9" opacity="0.35"/><line class="fl" x1="676.0" y1="142.0" x2="812.0" y2="141.0" pathLength="100" stroke="#00e5ff" stroke-width="1.8" stroke-linecap="round" stroke-dasharray="16 84"/><line x1="676.0" y1="142.0" x2="812.0" y2="159.0" stroke="#00e5ff" stroke-width="0.9" opacity="0.35"/><line class="fl" x1="676.0" y1="142.0" x2="812.0" y2="159.0" pathLength="100" stroke="#00e5ff" stroke-width="1.8" stroke-linecap="round" stroke-dasharray="16 84"/><line x1="676.0" y1="142.0" x2="812.0" y2="177.0" stroke="#00e5ff" stroke-width="0.9" opacity="0.35"/><line class="fl" x1="676.0" y1="142.0" x2="812.0" y2="177.0" pathLength="100" stroke="#00e5ff" stroke-width="1.8" stroke-linecap="round" stroke-dasharray="16 84"/><line x1="676.0" y1="142.0" x2="812.0" y2="195.0" stroke="#00e5ff" stroke-width="0.9" opacity="0.35"/><line class="fl" x1="676.0" y1="142.0" x2="812.0" y2="195.0" pathLength="100" stroke="#00e5ff" stroke-width="1.8" stroke-linecap="round" stroke-dasharray="16 84"/><line x1="676.0" y1="142.0" x2="812.0" y2="213.0" stroke="#00e5ff" stroke-width="0.9" opacity="0.35"/><line class="fl" x1="676.0" y1="142.0" x2="812.0" y2="213.0" pathLength="100" stroke="#00e5ff" stroke-width="1.8" stroke-linecap="round" stroke-dasharray="16 84"/><line x1="676.0" y1="142.0" x2="812.0" y2="231.0" stroke="#00e5ff" stroke-width="0.9" opacity="0.35"/><line class="fl" x1="676.0" y1="142.0" x2="812.0" y2="231.0" pathLength="100" stroke="#00e5ff" stroke-width="1.8" stroke-linecap="round" stroke-dasharray="16 84"/><line x1="676.0" y1="142.0" x2="812.0" y2="249.0" stroke="#00e5ff" stroke-width="0.9" opacity="0.35"/><line class="fl" x1="676.0" y1="142.0" x2="812.0" y2="249.0" pathLength="100" stroke="#00e5ff" stroke-width="1.8" stroke-linecap="round" stroke-dasharray="16 84"/><line x1="676.0" y1="142.0" x2="812.0" y2="267.0" stroke="#00e5ff" stroke-width="0.9" opacity="0.35"/><line class="fl" x1="676.0" y1="142.0" x2="812.0" y2="267.0" pathLength="100" stroke="#00e5ff" stroke-width="1.8" stroke-linecap="round" stroke-dasharray="16 84"/><line x1="676.0" y1="142.0" x2="812.0" y2="285.0" stroke="#00e5ff" stroke-width="0.9" opacity="0.35"/><line class="fl" x1="676.0" y1="142.0" x2="812.0" y2="285.0" pathLength="100" stroke="#00e5ff" stroke-width="1.8" stroke-linecap="round" stroke-dasharray="16 84"/><line x1="676.0" y1="186.0" x2="812.0" y2="87.0" stroke="#00e5ff" stroke-width="0.9" opacity="0.35"/><line class="fl" x1="676.0" y1="186.0" x2="812.0" y2="87.0" pathLength="100" stroke="#00e5ff" stroke-width="1.8" stroke-linecap="round" stroke-dasharray="16 84"/><line x1="676.0" y1="186.0" x2="812.0" y2="105.0" stroke="#00e5ff" stroke-width="0.9" opacity="0.35"/><line class="fl" x1="676.0" y1="186.0" x2="812.0" y2="105.0" pathLength="100" stroke="#00e5ff" stroke-width="1.8" stroke-linecap="round" stroke-dasharray="16 84"/><line x1="676.0" y1="186.0" x2="812.0" y2="123.0" stroke="#00e5ff" stroke-width="0.9" opacity="0.35"/><line class="fl" x1="676.0" y1="186.0" x2="812.0" y2="123.0" pathLength="100" stroke="#00e5ff" stroke-width="1.8" stroke-linecap="round" stroke-dasharray="16 84"/><line x1="676.0" y1="186.0" x2="812.0" y2="141.0" stroke="#00e5ff" stroke-width="0.9" opacity="0.35"/><line class="fl" x1="676.0" y1="186.0" x2="812.0" y2="141.0" pathLength="100" stroke="#00e5ff" stroke-width="1.8" stroke-linecap="round" stroke-dasharray="16 84"/><line x1="676.0" y1="186.0" x2="812.0" y2="159.0" stroke="#00e5ff" stroke-width="0.9" opacity="0.35"/><line class="fl" x1="676.0" y1="186.0" x2="812.0" y2="159.0" pathLength="100" stroke="#00e5ff" stroke-width="1.8" stroke-linecap="round" stroke-dasharray="16 84"/><line x1="676.0" y1="186.0" x2="812.0" y2="177.0" stroke="#00e5ff" stroke-width="0.9" opacity="0.35"/><line class="fl" x1="676.0" y1="186.0" x2="812.0" y2="177.0" pathLength="100" stroke="#00e5ff" stroke-width="1.8" stroke-linecap="round" stroke-dasharray="16 84"/><line x1="676.0" y1="186.0" x2="812.0" y2="195.0" stroke="#00e5ff" stroke-width="0.9" opacity="0.35"/><line class="fl" x1="676.0" y1="186.0" x2="812.0" y2="195.0" pathLength="100" stroke="#00e5ff" stroke-width="1.8" stroke-linecap="round" stroke-dasharray="16 84"/><line x1="676.0" y1="186.0" x2="812.0" y2="213.0" stroke="#00e5ff" stroke-width="0.9" opacity="0.35"/><line class="fl" x1="676.0" y1="186.0" x2="812.0" y2="213.0" pathLength="100" stroke="#00e5ff" stroke-width="1.8" stroke-linecap="round" stroke-dasharray="16 84"/><line x1="676.0" y1="186.0" x2="812.0" y2="231.0" stroke="#00e5ff" stroke-width="0.9" opacity="0.35"/><line class="fl" x1="676.0" y1="186.0" x2="812.0" y2="231.0" pathLength="100" stroke="#00e5ff" stroke-width="1.8" stroke-linecap="round" stroke-dasharray="16 84"/><line x1="676.0" y1="186.0" x2="812.0" y2="249.0" stroke="#00e5ff" stroke-width="0.9" opacity="0.35"/><line class="fl" x1="676.0" y1="186.0" x2="812.0" y2="249.0" pathLength="100" stroke="#00e5ff" stroke-width="1.8" stroke-linecap="round" stroke-dasharray="16 84"/><line x1="676.0" y1="186.0" x2="812.0" y2="267.0" stroke="#00e5ff" stroke-width="0.9" opacity="0.35"/><line class="fl" x1="676.0" y1="186.0" x2="812.0" y2="267.0" pathLength="100" stroke="#00e5ff" stroke-width="1.8" stroke-linecap="round" stroke-dasharray="16 84"/><line x1="676.0" y1="186.0" x2="812.0" y2="285.0" stroke="#00e5ff" stroke-width="0.9" opacity="0.35"/><line class="fl" x1="676.0" y1="186.0" x2="812.0" y2="285.0" pathLength="100" stroke="#00e5ff" stroke-width="1.8" stroke-linecap="round" stroke-dasharray="16 84"/><line x1="676.0" y1="230.0" x2="812.0" y2="87.0" stroke="#00e5ff" stroke-width="0.9" opacity="0.35"/><line class="fl" x1="676.0" y1="230.0" x2="812.0" y2="87.0" pathLength="100" stroke="#00e5ff" stroke-width="1.8" stroke-linecap="round" stroke-dasharray="16 84"/><line x1="676.0" y1="230.0" x2="812.0" y2="105.0" stroke="#00e5ff" stroke-width="0.9" opacity="0.35"/><line class="fl" x1="676.0" y1="230.0" x2="812.0" y2="105.0" pathLength="100" stroke="#00e5ff" stroke-width="1.8" stroke-linecap="round" stroke-dasharray="16 84"/><line x1="676.0" y1="230.0" x2="812.0" y2="123.0" stroke="#00e5ff" stroke-width="0.9" opacity="0.35"/><line class="fl" x1="676.0" y1="230.0" x2="812.0" y2="123.0" pathLength="100" stroke="#00e5ff" stroke-width="1.8" stroke-linecap="round" stroke-dasharray="16 84"/><line x1="676.0" y1="230.0" x2="812.0" y2="141.0" stroke="#00e5ff" stroke-width="0.9" opacity="0.35"/><line class="fl" x1="676.0" y1="230.0" x2="812.0" y2="141.0" pathLength="100" stroke="#00e5ff" stroke-width="1.8" stroke-linecap="round" stroke-dasharray="16 84"/><line x1="676.0" y1="230.0" x2="812.0" y2="159.0" stroke="#00e5ff" stroke-width="0.9" opacity="0.35"/><line class="fl" x1="676.0" y1="230.0" x2="812.0" y2="159.0" pathLength="100" stroke="#00e5ff" stroke-width="1.8" stroke-linecap="round" stroke-dasharray="16 84"/><line x1="676.0" y1="230.0" x2="812.0" y2="177.0" stroke="#00e5ff" stroke-width="0.9" opacity="0.35"/><line class="fl" x1="676.0" y1="230.0" x2="812.0" y2="177.0" pathLength="100" stroke="#00e5ff" stroke-width="1.8" stroke-linecap="round" stroke-dasharray="16 84"/><line x1="676.0" y1="230.0" x2="812.0" y2="195.0" stroke="#00e5ff" stroke-width="0.9" opacity="0.35"/><line class="fl" x1="676.0" y1="230.0" x2="812.0" y2="195.0" pathLength="100" stroke="#00e5ff" stroke-width="1.8" stroke-linecap="round" stroke-dasharray="16 84"/><line x1="676.0" y1="230.0" x2="812.0" y2="213.0" stroke="#00e5ff" stroke-width="0.9" opacity="0.35"/><line class="fl" x1="676.0" y1="230.0" x2="812.0" y2="213.0" pathLength="100" stroke="#00e5ff" stroke-width="1.8" stroke-linecap="round" stroke-dasharray="16 84"/><line x1="676.0" y1="230.0" x2="812.0" y2="231.0" stroke="#00e5ff" stroke-width="0.9" opacity="0.35"/><line class="fl" x1="676.0" y1="230.0" x2="812.0" y2="231.0" pathLength="100" stroke="#00e5ff" stroke-width="1.8" stroke-linecap="round" stroke-dasharray="16 84"/><line x1="676.0" y1="230.0" x2="812.0" y2="249.0" stroke="#00e5ff" stroke-width="0.9" opacity="0.35"/><line class="fl" x1="676.0" y1="230.0" x2="812.0" y2="249.0" pathLength="100" stroke="#00e5ff" stroke-width="1.8" stroke-linecap="round" stroke-dasharray="16 84"/><line x1="676.0" y1="230.0" x2="812.0" y2="267.0" stroke="#00e5ff" stroke-width="0.9" opacity="0.35"/><line class="fl" x1="676.0" y1="230.0" x2="812.0" y2="267.0" pathLength="100" stroke="#00e5ff" stroke-width="1.8" stroke-linecap="round" stroke-dasharray="16 84"/><line x1="676.0" y1="230.0" x2="812.0" y2="285.0" stroke="#00e5ff" stroke-width="0.9" opacity="0.35"/><line class="fl" x1="676.0" y1="230.0" x2="812.0" y2="285.0" pathLength="100" stroke="#00e5ff" stroke-width="1.8" stroke-linecap="round" stroke-dasharray="16 84"/></g><g class="s1"><line x1="812.0" y1="87.0" x2="948.0" y2="142.0" stroke="#00e5ff" stroke-width="0.9" opacity="0.35"/><line class="fl" x1="812.0" y1="87.0" x2="948.0" y2="142.0" pathLength="100" stroke="#00e5ff" stroke-width="1.8" stroke-linecap="round" stroke-dasharray="16 84"/><line x1="812.0" y1="87.0" x2="948.0" y2="186.0" stroke="#00e5ff" stroke-width="0.9" opacity="0.35"/><line class="fl" x1="812.0" y1="87.0" x2="948.0" y2="186.0" pathLength="100" stroke="#00e5ff" stroke-width="1.8" stroke-linecap="round" stroke-dasharray="16 84"/><line x1="812.0" y1="87.0" x2="948.0" y2="230.0" stroke="#00e5ff" stroke-width="0.9" opacity="0.35"/><line class="fl" x1="812.0" y1="87.0" x2="948.0" y2="230.0" pathLength="100" stroke="#00e5ff" stroke-width="1.8" stroke-linecap="round" stroke-dasharray="16 84"/><line x1="812.0" y1="105.0" x2="948.0" y2="142.0" stroke="#00e5ff" stroke-width="0.9" opacity="0.35"/><line class="fl" x1="812.0" y1="105.0" x2="948.0" y2="142.0" pathLength="100" stroke="#00e5ff" stroke-width="1.8" stroke-linecap="round" stroke-dasharray="16 84"/><line x1="812.0" y1="105.0" x2="948.0" y2="186.0" stroke="#00e5ff" stroke-width="0.9" opacity="0.35"/><line class="fl" x1="812.0" y1="105.0" x2="948.0" y2="186.0" pathLength="100" stroke="#00e5ff" stroke-width="1.8" stroke-linecap="round" stroke-dasharray="16 84"/><line x1="812.0" y1="105.0" x2="948.0" y2="230.0" stroke="#00e5ff" stroke-width="0.9" opacity="0.35"/><line class="fl" x1="812.0" y1="105.0" x2="948.0" y2="230.0" pathLength="100" stroke="#00e5ff" stroke-width="1.8" stroke-linecap="round" stroke-dasharray="16 84"/><line x1="812.0" y1="123.0" x2="948.0" y2="142.0" stroke="#00e5ff" stroke-width="0.9" opacity="0.35"/><line class="fl" x1="812.0" y1="123.0" x2="948.0" y2="142.0" pathLength="100" stroke="#00e5ff" stroke-width="1.8" stroke-linecap="round" stroke-dasharray="16 84"/><line x1="812.0" y1="123.0" x2="948.0" y2="186.0" stroke="#00e5ff" stroke-width="0.9" opacity="0.35"/><line class="fl" x1="812.0" y1="123.0" x2="948.0" y2="186.0" pathLength="100" stroke="#00e5ff" stroke-width="1.8" stroke-linecap="round" stroke-dasharray="16 84"/><line x1="812.0" y1="123.0" x2="948.0" y2="230.0" stroke="#00e5ff" stroke-width="0.9" opacity="0.35"/><line class="fl" x1="812.0" y1="123.0" x2="948.0" y2="230.0" pathLength="100" stroke="#00e5ff" stroke-width="1.8" stroke-linecap="round" stroke-dasharray="16 84"/><line x1="812.0" y1="141.0" x2="948.0" y2="142.0" stroke="#00e5ff" stroke-width="0.9" opacity="0.35"/><line class="fl" x1="812.0" y1="141.0" x2="948.0" y2="142.0" pathLength="100" stroke="#00e5ff" stroke-width="1.8" stroke-linecap="round" stroke-dasharray="16 84"/><line x1="812.0" y1="141.0" x2="948.0" y2="186.0" stroke="#00e5ff" stroke-width="0.9" opacity="0.35"/><line class="fl" x1="812.0" y1="141.0" x2="948.0" y2="186.0" pathLength="100" stroke="#00e5ff" stroke-width="1.8" stroke-linecap="round" stroke-dasharray="16 84"/><line x1="812.0" y1="141.0" x2="948.0" y2="230.0" stroke="#00e5ff" stroke-width="0.9" opacity="0.35"/><line class="fl" x1="812.0" y1="141.0" x2="948.0" y2="230.0" pathLength="100" stroke="#00e5ff" stroke-width="1.8" stroke-linecap="round" stroke-dasharray="16 84"/><line x1="812.0" y1="159.0" x2="948.0" y2="142.0" stroke="#00e5ff" stroke-width="0.9" opacity="0.35"/><line class="fl" x1="812.0" y1="159.0" x2="948.0" y2="142.0" pathLength="100" stroke="#00e5ff" stroke-width="1.8" stroke-linecap="round" stroke-dasharray="16 84"/><line x1="812.0" y1="159.0" x2="948.0" y2="186.0" stroke="#00e5ff" stroke-width="0.9" opacity="0.35"/><line class="fl" x1="812.0" y1="159.0" x2="948.0" y2="186.0" pathLength="100" stroke="#00e5ff" stroke-width="1.8" stroke-linecap="round" stroke-dasharray="16 84"/><line x1="812.0" y1="159.0" x2="948.0" y2="230.0" stroke="#00e5ff" stroke-width="0.9" opacity="0.35"/><line class="fl" x1="812.0" y1="159.0" x2="948.0" y2="230.0" pathLength="100" stroke="#00e5ff" stroke-width="1.8" stroke-linecap="round" stroke-dasharray="16 84"/><line x1="812.0" y1="177.0" x2="948.0" y2="142.0" stroke="#00e5ff" stroke-width="0.9" opacity="0.35"/><line class="fl" x1="812.0" y1="177.0" x2="948.0" y2="142.0" pathLength="100" stroke="#00e5ff" stroke-width="1.8" stroke-linecap="round" stroke-dasharray="16 84"/><line x1="812.0" y1="177.0" x2="948.0" y2="186.0" stroke="#00e5ff" stroke-width="0.9" opacity="0.35"/><line class="fl" x1="812.0" y1="177.0" x2="948.0" y2="186.0" pathLength="100" stroke="#00e5ff" stroke-width="1.8" stroke-linecap="round" stroke-dasharray="16 84"/><line x1="812.0" y1="177.0" x2="948.0" y2="230.0" stroke="#00e5ff" stroke-width="0.9" opacity="0.35"/><line class="fl" x1="812.0" y1="177.0" x2="948.0" y2="230.0" pathLength="100" stroke="#00e5ff" stroke-width="1.8" stroke-linecap="round" stroke-dasharray="16 84"/><line x1="812.0" y1="195.0" x2="948.0" y2="142.0" stroke="#00e5ff" stroke-width="0.9" opacity="0.35"/><line class="fl" x1="812.0" y1="195.0" x2="948.0" y2="142.0" pathLength="100" stroke="#00e5ff" stroke-width="1.8" stroke-linecap="round" stroke-dasharray="16 84"/><line x1="812.0" y1="195.0" x2="948.0" y2="186.0" stroke="#00e5ff" stroke-width="0.9" opacity="0.35"/><line class="fl" x1="812.0" y1="195.0" x2="948.0" y2="186.0" pathLength="100" stroke="#00e5ff" stroke-width="1.8" stroke-linecap="round" stroke-dasharray="16 84"/><line x1="812.0" y1="195.0" x2="948.0" y2="230.0" stroke="#00e5ff" stroke-width="0.9" opacity="0.35"/><line class="fl" x1="812.0" y1="195.0" x2="948.0" y2="230.0" pathLength="100" stroke="#00e5ff" stroke-width="1.8" stroke-linecap="round" stroke-dasharray="16 84"/><line x1="812.0" y1="213.0" x2="948.0" y2="142.0" stroke="#00e5ff" stroke-width="0.9" opacity="0.35"/><line class="fl" x1="812.0" y1="213.0" x2="948.0" y2="142.0" pathLength="100" stroke="#00e5ff" stroke-width="1.8" stroke-linecap="round" stroke-dasharray="16 84"/><line x1="812.0" y1="213.0" x2="948.0" y2="186.0" stroke="#00e5ff" stroke-width="0.9" opacity="0.35"/><line class="fl" x1="812.0" y1="213.0" x2="948.0" y2="186.0" pathLength="100" stroke="#00e5ff" stroke-width="1.8" stroke-linecap="round" stroke-dasharray="16 84"/><line x1="812.0" y1="213.0" x2="948.0" y2="230.0" stroke="#00e5ff" stroke-width="0.9" opacity="0.35"/><line class="fl" x1="812.0" y1="213.0" x2="948.0" y2="230.0" pathLength="100" stroke="#00e5ff" stroke-width="1.8" stroke-linecap="round" stroke-dasharray="16 84"/><line x1="812.0" y1="231.0" x2="948.0" y2="142.0" stroke="#00e5ff" stroke-width="0.9" opacity="0.35"/><line class="fl" x1="812.0" y1="231.0" x2="948.0" y2="142.0" pathLength="100" stroke="#00e5ff" stroke-width="1.8" stroke-linecap="round" stroke-dasharray="16 84"/><line x1="812.0" y1="231.0" x2="948.0" y2="186.0" stroke="#00e5ff" stroke-width="0.9" opacity="0.35"/><line class="fl" x1="812.0" y1="231.0" x2="948.0" y2="186.0" pathLength="100" stroke="#00e5ff" stroke-width="1.8" stroke-linecap="round" stroke-dasharray="16 84"/><line x1="812.0" y1="231.0" x2="948.0" y2="230.0" stroke="#00e5ff" stroke-width="0.9" opacity="0.35"/><line class="fl" x1="812.0" y1="231.0" x2="948.0" y2="230.0" pathLength="100" stroke="#00e5ff" stroke-width="1.8" stroke-linecap="round" stroke-dasharray="16 84"/><line x1="812.0" y1="249.0" x2="948.0" y2="142.0" stroke="#00e5ff" stroke-width="0.9" opacity="0.35"/><line class="fl" x1="812.0" y1="249.0" x2="948.0" y2="142.0" pathLength="100" stroke="#00e5ff" stroke-width="1.8" stroke-linecap="round" stroke-dasharray="16 84"/><line x1="812.0" y1="249.0" x2="948.0" y2="186.0" stroke="#00e5ff" stroke-width="0.9" opacity="0.35"/><line class="fl" x1="812.0" y1="249.0" x2="948.0" y2="186.0" pathLength="100" stroke="#00e5ff" stroke-width="1.8" stroke-linecap="round" stroke-dasharray="16 84"/><line x1="812.0" y1="249.0" x2="948.0" y2="230.0" stroke="#00e5ff" stroke-width="0.9" opacity="0.35"/><line class="fl" x1="812.0" y1="249.0" x2="948.0" y2="230.0" pathLength="100" stroke="#00e5ff" stroke-width="1.8" stroke-linecap="round" stroke-dasharray="16 84"/><line x1="812.0" y1="267.0" x2="948.0" y2="142.0" stroke="#00e5ff" stroke-width="0.9" opacity="0.35"/><line class="fl" x1="812.0" y1="267.0" x2="948.0" y2="142.0" pathLength="100" stroke="#00e5ff" stroke-width="1.8" stroke-linecap="round" stroke-dasharray="16 84"/><line x1="812.0" y1="267.0" x2="948.0" y2="186.0" stroke="#00e5ff" stroke-width="0.9" opacity="0.35"/><line class="fl" x1="812.0" y1="267.0" x2="948.0" y2="186.0" pathLength="100" stroke="#00e5ff" stroke-width="1.8" stroke-linecap="round" stroke-dasharray="16 84"/><line x1="812.0" y1="267.0" x2="948.0" y2="230.0" stroke="#00e5ff" stroke-width="0.9" opacity="0.35"/><line class="fl" x1="812.0" y1="267.0" x2="948.0" y2="230.0" pathLength="100" stroke="#00e5ff" stroke-width="1.8" stroke-linecap="round" stroke-dasharray="16 84"/><line x1="812.0" y1="285.0" x2="948.0" y2="142.0" stroke="#00e5ff" stroke-width="0.9" opacity="0.35"/><line class="fl" x1="812.0" y1="285.0" x2="948.0" y2="142.0" pathLength="100" stroke="#00e5ff" stroke-width="1.8" stroke-linecap="round" stroke-dasharray="16 84"/><line x1="812.0" y1="285.0" x2="948.0" y2="186.0" stroke="#00e5ff" stroke-width="0.9" opacity="0.35"/><line class="fl" x1="812.0" y1="285.0" x2="948.0" y2="186.0" pathLength="100" stroke="#00e5ff" stroke-width="1.8" stroke-linecap="round" stroke-dasharray="16 84"/><line x1="812.0" y1="285.0" x2="948.0" y2="230.0" stroke="#00e5ff" stroke-width="0.9" opacity="0.35"/><line class="fl" x1="812.0" y1="285.0" x2="948.0" y2="230.0" pathLength="100" stroke="#00e5ff" stroke-width="1.8" stroke-linecap="round" stroke-dasharray="16 84"/></g><circle class="u0" cx="676.0" cy="142.0" r="3" fill="#00b32e"/><circle class="u0" cx="676.0" cy="186.0" r="3" fill="#00b32e"/><circle class="u0" cx="676.0" cy="230.0" r="3" fill="#00b32e"/><circle class="u1" cx="812.0" cy="87.0" r="3" fill="#00b32e"/><circle class="u1" cx="812.0" cy="105.0" r="3" fill="#00b32e"/><circle class="u1" cx="812.0" cy="123.0" r="3" fill="#00b32e"/><circle class="u1" cx="812.0" cy="141.0" r="3" fill="#00b32e"/><circle class="u1" cx="812.0" cy="159.0" r="3" fill="#00b32e"/><circle class="u1" cx="812.0" cy="177.0" r="3" fill="#00b32e"/><circle class="u1" cx="812.0" cy="195.0" r="3" fill="#00b32e"/><circle class="u1" cx="812.0" cy="213.0" r="3" fill="#00b32e"/><circle class="u1" cx="812.0" cy="231.0" r="3" fill="#00b32e"/><circle class="u1" cx="812.0" cy="249.0" r="3" fill="#00b32e"/><circle class="u1" cx="812.0" cy="267.0" r="3" fill="#00b32e"/><circle class="u1" cx="812.0" cy="285.0" r="3" fill="#00b32e"/><circle class="u2" cx="948.0" cy="142.0" r="3" fill="#00b32e"/><circle class="u2" cx="948.0" cy="186.0" r="3" fill="#00b32e"/><circle class="u2" cx="948.0" cy="230.0" r="3" fill="#00b32e"/><text x="646" y="319" font-size="10.5" fill="#7d8f85" opacity="0.65" font-family="ui-monospace,Menlo,Consolas,monospace">feed-forward &#183; d &#8594; 4d &#8594; d</text></g><mask id="m0"><rect class="m0" x="26.0" y="53.0" height="22.5" width="0" fill="#fff"/></mask><text class="t l0" x="26.0" y="68.0" mask="url(#m0)"><tspan fill="#00ff41">mayukh@github</tspan><tspan fill="#00b32e">:~$ </tspan><tspan fill="#d8e4dc">whoami</tspan><tspan class="c0">&#9608;</tspan></text><mask id="m1"><rect class="m1" x="26.0" y="80.0" height="22.5" width="0" fill="#fff"/></mask><text class="t l1" x="26.0" y="95.0" mask="url(#m1)"><tspan fill="#d8e4dc">Mayukh Das </tspan><tspan fill="#1d4a2f">:: </tspan><tspan fill="#00e5ff">System Architect Intern </tspan><tspan fill="#00ff41">@ Eccoi</tspan><tspan class="c1">&#9608;</tspan></text><mask id="m2"><rect class="m2" x="26.0" y="107.0" height="22.5" width="0" fill="#fff"/></mask><text class="t l2" x="26.0" y="122.0" mask="url(#m2)"><tspan fill="#7d8f85">Master of Computing @ </tspan><tspan fill="#00ff41">ANU</tspan><tspan fill="#7d8f85">  ·  ex-Accenture, 3+ yrs</tspan><tspan class="c2">&#9608;</tspan></text><mask id="m4"><rect class="m4" x="26.0" y="148.85" height="22.5" width="0" fill="#fff"/></mask><text class="t l4" x="26.0" y="163.85" mask="url(#m4)"><tspan fill="#00ff41">mayukh@github</tspan><tspan fill="#00b32e">:~$ </tspan><tspan fill="#d8e4dc">cat focus.txt</tspan><tspan class="c4">&#9608;</tspan></text><mask id="m5"><rect class="m5" x="26.0" y="175.85" height="22.5" width="0" fill="#fff"/></mask><text class="t l5" x="26.0" y="190.85" mask="url(#m5)"><tspan fill="#7d8f85">generative models · sovereign AI · HCI · defence &amp; geopolitics</tspan><tspan class="c5">&#9608;</tspan></text><mask id="m7"><rect class="m7" x="26.0" y="217.7" height="22.5" width="0" fill="#fff"/></mask><text class="t l7" x="26.0" y="232.7" mask="url(#m7)"><tspan fill="#00ff41">mayukh@github</tspan><tspan fill="#00b32e">:~$ </tspan><tspan fill="#d8e4dc">./status --now</tspan><tspan class="c7">&#9608;</tspan></text><mask id="m8"><rect class="m8" x="26.0" y="244.7" height="22.5" width="0" fill="#fff"/></mask><text class="t l8" x="26.0" y="259.7" mask="url(#m8)"><tspan fill="#00ff41">[ok] </tspan><tspan fill="#d8e4dc">building things people can actually understand</tspan><tspan class="c8">&#9608;</tspan></text></svg>